function data()
return { 
		subMeshes = {
			{ 
				indices = { 
					normal = { 
						count = 393912,
						offset = 1273332,
					},
					position = { 
						count = 393912,
						offset = 485508,
					},
					tangent = { 
						count = 393912,
						offset = 1667244,
					},
					uv0 = { 
						count = 393912,
						offset = 879420,
					},
				},
			},
		},
		vertexAttr = { 
			normal = { 
				count = 59364,
				numComp = 3,
				offset = 257632,
			},
			position = { 
				count = 233256,
				numComp = 3,
				offset = 0,
			},
			tangent = { 
				count = 168512,
				numComp = 4,
				offset = 316996,
			},
			uv0 = { 
				count = 24376,
				numComp = 2,
				offset = 233256,
			},
		},
	}
end