function data()
return { 
		subMeshes = {
			{ 
				indices = { 
					normal = { 
						count = 25044,
						offset = 102652,
					},
					position = { 
						count = 25044,
						offset = 52564,
					},
					tangent = { 
						count = 25044,
						offset = 127696,
					},
					uv0 = { 
						count = 25044,
						offset = 77608,
					},
				},
			},
		},
		vertexAttr = { 
			normal = { 
				count = 13296,
				numComp = 3,
				offset = 22164,
			},
			position = { 
				count = 13380,
				numComp = 3,
				offset = 0,
			},
			tangent = { 
				count = 17104,
				numComp = 4,
				offset = 35460,
			},
			uv0 = { 
				count = 8784,
				numComp = 2,
				offset = 13380,
			},
		},
	}
end