function data()
return { 
		subMeshes = {
			{ 
				indices = { 
					normal = { 
						count = 49908,
						offset = 218104,
					},
					position = { 
						count = 49908,
						offset = 118288,
					},
					tangent = { 
						count = 49908,
						offset = 268012,
					},
					uv0 = { 
						count = 49908,
						offset = 168196,
					},
				},
			},
		},
		vertexAttr = { 
			normal = { 
				count = 24408,
				numComp = 3,
				offset = 51912,
			},
			position = { 
				count = 28776,
				numComp = 3,
				offset = 0,
			},
			tangent = { 
				count = 41968,
				numComp = 4,
				offset = 76320,
			},
			uv0 = { 
				count = 23136,
				numComp = 2,
				offset = 28776,
			},
		},
	}
end