function data()
return { 
		subMeshes = {
			{ 
				indices = { 
					normal = { 
						count = 11868,
						offset = 51080,
					},
					position = { 
						count = 11868,
						offset = 27344,
					},
					tangent = { 
						count = 11868,
						offset = 62948,
					},
					uv0 = { 
						count = 11868,
						offset = 39212,
					},
				},
			},
		},
		vertexAttr = { 
			normal = { 
				count = 6876,
				numComp = 3,
				offset = 11588,
			},
			position = { 
				count = 7212,
				numComp = 3,
				offset = 0,
			},
			tangent = { 
				count = 8880,
				numComp = 4,
				offset = 18464,
			},
			uv0 = { 
				count = 4376,
				numComp = 2,
				offset = 7212,
			},
		},
	}
end