function data()
return { 
		subMeshes = {
			{ 
				indices = { 
					normal = { 
						count = 22824,
						offset = 129468,
					},
					position = { 
						count = 22824,
						offset = 83820,
					},
					tangent = { 
						count = 22824,
						offset = 152292,
					},
					uv0 = { 
						count = 22824,
						offset = 106644,
					},
				},
			},
		},
		vertexAttr = { 
			normal = { 
				count = 15816,
				numComp = 3,
				offset = 35860,
			},
			position = { 
				count = 22116,
				numComp = 3,
				offset = 0,
			},
			tangent = { 
				count = 32144,
				numComp = 4,
				offset = 51676,
			},
			uv0 = { 
				count = 13744,
				numComp = 2,
				offset = 22116,
			},
		},
	}
end