function data()
return { 
		subMeshes = {
			{ 
				indices = { 
					normal = { 
						count = 10284,
						offset = 51888,
					},
					position = { 
						count = 10284,
						offset = 31320,
					},
					tangent = { 
						count = 10284,
						offset = 62172,
					},
					uv0 = { 
						count = 10284,
						offset = 41604,
					},
				},
			},
		},
		vertexAttr = { 
			normal = { 
				count = 5496,
				numComp = 3,
				offset = 14800,
			},
			position = { 
				count = 9528,
				numComp = 3,
				offset = 0,
			},
			tangent = { 
				count = 11024,
				numComp = 4,
				offset = 20296,
			},
			uv0 = { 
				count = 5272,
				numComp = 2,
				offset = 9528,
			},
		},
	}
end