function data()
return { 
		subMeshes = {
			{ 
				indices = { 
					normal = { 
						count = 780,
						offset = 13984,
					},
					position = { 
						count = 780,
						offset = 12424,
					},
					tangent = { 
						count = 780,
						offset = 14764,
					},
					uv0 = { 
						count = 780,
						offset = 13204,
					},
				},
			},
			{ 
				indices = { 
					normal = { 
						count = 3876,
						offset = 23296,
					},
					position = { 
						count = 3876,
						offset = 15544,
					},
					tangent = { 
						count = 3876,
						offset = 27172,
					},
					uv0 = { 
						count = 3876,
						offset = 19420,
					},
				},
			},
			{ 
				indices = { 
					normal = { 
						count = 360,
						offset = 31768,
					},
					position = { 
						count = 360,
						offset = 31048,
					},
					tangent = { 
						count = 360,
						offset = 32128,
					},
					uv0 = { 
						count = 360,
						offset = 31408,
					},
				},
			},
		},
		vertexAttr = { 
			normal = { 
				count = 2880,
				numComp = 3,
				offset = 5400,
			},
			position = { 
				count = 2712,
				numComp = 3,
				offset = 0,
			},
			tangent = { 
				count = 4144,
				numComp = 4,
				offset = 8280,
			},
			uv0 = { 
				count = 2688,
				numComp = 2,
				offset = 2712,
			},
		},
	}
end