function data()
return { 
		subMeshes = {
			{ 
				indices = { 
					normal = { 
						count = 100368,
						offset = 426112,
					},
					position = { 
						count = 100368,
						offset = 225376,
					},
					tangent = { 
						count = 100368,
						offset = 526480,
					},
					uv0 = { 
						count = 100368,
						offset = 325744,
					},
					uv1 = { 
						count = 100368,
						offset = 626848,
					},
				},
			},
		},
		vertexAttr = { 
			normal = { 
				count = 27516,
				numComp = 3,
				offset = 122764,
			},
			position = { 
				count = 115404,
				numComp = 3,
				offset = 0,
			},
			tangent = { 
				count = 75088,
				numComp = 4,
				offset = 150280,
			},
			uv0 = { 
				count = 7360,
				numComp = 2,
				offset = 115404,
			},
			uv1 = { 
				count = 8,
				numComp = 2,
				offset = 225368,
			},
		},
	}
end