function data()
return { 
		subMeshes = {
			{ 
				indices = { 
					normal = { 
						count = 4344,
						offset = 21524,
					},
					position = { 
						count = 4344,
						offset = 12836,
					},
					tangent = { 
						count = 4344,
						offset = 25868,
					},
					uv0 = { 
						count = 4344,
						offset = 17180,
					},
					uv1 = { 
						count = 4344,
						offset = 30212,
					},
				},
			},
		},
		vertexAttr = { 
			normal = { 
				count = 1488,
				numComp = 3,
				offset = 5788,
			},
			position = { 
				count = 4164,
				numComp = 3,
				offset = 0,
			},
			tangent = { 
				count = 5552,
				numComp = 4,
				offset = 7276,
			},
			uv0 = { 
				count = 1624,
				numComp = 2,
				offset = 4164,
			},
			uv1 = { 
				count = 8,
				numComp = 2,
				offset = 12828,
			},
		},
	}
end