function data()
return { 
		subMeshes = {
			{ 
				indices = { 
					normal = { 
						count = 16848,
						offset = 82972,
					},
					position = { 
						count = 16848,
						offset = 49276,
					},
					tangent = { 
						count = 16848,
						offset = 99820,
					},
					uv0 = { 
						count = 16848,
						offset = 66124,
					},
				},
			},
		},
		vertexAttr = { 
			normal = { 
				count = 8076,
				numComp = 3,
				offset = 20272,
			},
			position = { 
				count = 9912,
				numComp = 3,
				offset = 0,
			},
			tangent = { 
				count = 20928,
				numComp = 4,
				offset = 28348,
			},
			uv0 = { 
				count = 10360,
				numComp = 2,
				offset = 9912,
			},
		},
	}
end