function data()
return { 
		subMeshes = {
			{ 
				indices = { 
					normal = { 
						count = 16848,
						offset = 83572,
					},
					position = { 
						count = 16848,
						offset = 49876,
					},
					tangent = { 
						count = 16848,
						offset = 100420,
					},
					uv0 = { 
						count = 16848,
						offset = 66724,
					},
				},
			},
		},
		vertexAttr = { 
			normal = { 
				count = 8484,
				numComp = 3,
				offset = 20272,
			},
			position = { 
				count = 9912,
				numComp = 3,
				offset = 0,
			},
			tangent = { 
				count = 21120,
				numComp = 4,
				offset = 28756,
			},
			uv0 = { 
				count = 10360,
				numComp = 2,
				offset = 9912,
			},
		},
	}
end