function data()
return { 
		subMeshes = {
			{ 
				indices = { 
					normal = { 
						count = 16896,
						offset = 67184,
					},
					position = { 
						count = 16896,
						offset = 33392,
					},
					tangent = { 
						count = 16896,
						offset = 84080,
					},
					uv0 = { 
						count = 16896,
						offset = 50288,
					},
				},
			},
		},
		vertexAttr = { 
			normal = { 
				count = 1392,
				numComp = 3,
				offset = 12960,
			},
			position = { 
				count = 8832,
				numComp = 3,
				offset = 0,
			},
			tangent = { 
				count = 19040,
				numComp = 4,
				offset = 14352,
			},
			uv0 = { 
				count = 4128,
				numComp = 2,
				offset = 8832,
			},
		},
	}
end