function data()
return { 
		subMeshes = {
			{ 
				indices = { 
					normal = { 
						count = 33168,
						offset = 175200,
					},
					position = { 
						count = 33168,
						offset = 108864,
					},
					tangent = { 
						count = 33168,
						offset = 208368,
					},
					uv0 = { 
						count = 33168,
						offset = 142032,
					},
				},
			},
		},
		vertexAttr = { 
			normal = { 
				count = 17784,
				numComp = 3,
				offset = 46792,
			},
			position = { 
				count = 28584,
				numComp = 3,
				offset = 0,
			},
			tangent = { 
				count = 44288,
				numComp = 4,
				offset = 64576,
			},
			uv0 = { 
				count = 18208,
				numComp = 2,
				offset = 28584,
			},
		},
	}
end