function data()
return { 
		subMeshes = {
			{ 
				indices = { 
					normal = { 
						count = 3432,
						offset = 19120,
					},
					position = { 
						count = 3432,
						offset = 12256,
					},
					tangent = { 
						count = 3432,
						offset = 22552,
					},
					uv0 = { 
						count = 3432,
						offset = 15688,
					},
				},
			},
			{ 
				indices = { 
					normal = { 
						count = 696,
						offset = 27376,
					},
					position = { 
						count = 696,
						offset = 25984,
					},
					tangent = { 
						count = 696,
						offset = 28072,
					},
					uv0 = { 
						count = 696,
						offset = 26680,
					},
				},
			},
			{ 
				indices = { 
					normal = { 
						count = 312,
						offset = 29392,
					},
					position = { 
						count = 312,
						offset = 28768,
					},
					tangent = { 
						count = 312,
						offset = 29704,
					},
					uv0 = { 
						count = 312,
						offset = 29080,
					},
				},
			},
		},
		vertexAttr = { 
			normal = { 
				count = 3120,
				numComp = 3,
				offset = 4416,
			},
			position = { 
				count = 2064,
				numComp = 3,
				offset = 0,
			},
			tangent = { 
				count = 4720,
				numComp = 4,
				offset = 7536,
			},
			uv0 = { 
				count = 2352,
				numComp = 2,
				offset = 2064,
			},
		},
	}
end