function data()
return { 
		subMeshes = {
			{ 
				indices = { 
					normal = { 
						count = 11760,
						offset = 68716,
					},
					position = { 
						count = 11760,
						offset = 45196,
					},
					tangent = { 
						count = 11760,
						offset = 80476,
					},
					uv0 = { 
						count = 11760,
						offset = 56956,
					},
				},
			},
		},
		vertexAttr = { 
			normal = { 
				count = 6660,
				numComp = 3,
				offset = 19272,
			},
			position = { 
				count = 11424,
				numComp = 3,
				offset = 0,
			},
			tangent = { 
				count = 19264,
				numComp = 4,
				offset = 25932,
			},
			uv0 = { 
				count = 7848,
				numComp = 2,
				offset = 11424,
			},
		},
	}
end