function data()
return { 
		subMeshes = {
			{ 
				indices = { 
					normal = { 
						count = 483264,
						offset = 1411944,
					},
					position = { 
						count = 483264,
						offset = 445416,
					},
					tangent = { 
						count = 483264,
						offset = 1895208,
					},
					uv0 = { 
						count = 483264,
						offset = 928680,
					},
				},
			},
		},
		vertexAttr = { 
			normal = { 
				count = 26484,
				numComp = 3,
				offset = 297476,
			},
			position = { 
				count = 287028,
				numComp = 3,
				offset = 0,
			},
			tangent = { 
				count = 121456,
				numComp = 4,
				offset = 323960,
			},
			uv0 = { 
				count = 10448,
				numComp = 2,
				offset = 287028,
			},
		},
	}
end