function data()
return { 
		subMeshes = {
			{ 
				indices = { 
					normal = { 
						count = 136980,
						offset = 517812,
					},
					position = { 
						count = 136980,
						offset = 243852,
					},
					tangent = { 
						count = 136980,
						offset = 654792,
					},
					uv0 = { 
						count = 136980,
						offset = 380832,
					},
				},
			},
		},
		vertexAttr = { 
			normal = { 
				count = 19872,
				numComp = 3,
				offset = 137372,
			},
			position = { 
				count = 132372,
				numComp = 3,
				offset = 0,
			},
			tangent = { 
				count = 86608,
				numComp = 4,
				offset = 157244,
			},
			uv0 = { 
				count = 5000,
				numComp = 2,
				offset = 132372,
			},
		},
	}
end