function data()
return { 
		subMeshes = {
			{ 
				indices = { 
					normal = { 
						count = 20484,
						offset = 100208,
					},
					position = { 
						count = 20484,
						offset = 59240,
					},
					tangent = { 
						count = 20484,
						offset = 120692,
					},
					uv0 = { 
						count = 20484,
						offset = 79724,
					},
				},
			},
		},
		vertexAttr = { 
			normal = { 
				count = 9672,
				numComp = 3,
				offset = 28656,
			},
			position = { 
				count = 18072,
				numComp = 3,
				offset = 0,
			},
			tangent = { 
				count = 20912,
				numComp = 4,
				offset = 38328,
			},
			uv0 = { 
				count = 10584,
				numComp = 2,
				offset = 18072,
			},
		},
	}
end