function data()
return { 
		subMeshes = {
			{ 
				indices = { 
					normal = { 
						count = 13224,
						offset = 67512,
					},
					position = { 
						count = 13224,
						offset = 41064,
					},
					tangent = { 
						count = 13224,
						offset = 80736,
					},
					uv0 = { 
						count = 13224,
						offset = 54288,
					},
				},
			},
		},
		vertexAttr = { 
			normal = { 
				count = 6648,
				numComp = 3,
				offset = 19904,
			},
			position = { 
				count = 12936,
				numComp = 3,
				offset = 0,
			},
			tangent = { 
				count = 14512,
				numComp = 4,
				offset = 26552,
			},
			uv0 = { 
				count = 6968,
				numComp = 2,
				offset = 12936,
			},
		},
	}
end