function data()
return { 
		subMeshes = {
			{ 
				indices = { 
					normal = { 
						count = 21168,
						offset = 101340,
					},
					position = { 
						count = 21168,
						offset = 59004,
					},
					tangent = { 
						count = 21168,
						offset = 122508,
					},
					uv0 = { 
						count = 21168,
						offset = 80172,
					},
				},
			},
		},
		vertexAttr = { 
			normal = { 
				count = 8628,
				numComp = 3,
				offset = 25336,
			},
			position = { 
				count = 23424,
				numComp = 3,
				offset = 0,
			},
			tangent = { 
				count = 25040,
				numComp = 4,
				offset = 33964,
			},
			uv0 = { 
				count = 1912,
				numComp = 2,
				offset = 23424,
			},
		},
	}
end