function data()
return { 
		subMeshes = {
			{ 
				indices = { 
					normal = { 
						count = 481464,
						offset = 1536528,
					},
					position = { 
						count = 481464,
						offset = 573600,
					},
					tangent = { 
						count = 481464,
						offset = 2017992,
					},
					uv0 = { 
						count = 481464,
						offset = 1055064,
					},
				},
			},
		},
		vertexAttr = { 
			normal = { 
				count = 57024,
				numComp = 3,
				offset = 310576,
			},
			position = { 
				count = 286488,
				numComp = 3,
				offset = 0,
			},
			tangent = { 
				count = 206000,
				numComp = 4,
				offset = 367600,
			},
			uv0 = { 
				count = 24088,
				numComp = 2,
				offset = 286488,
			},
		},
	}
end