function data()
return { 
		subMeshes = {
			{ 
				indices = { 
					normal = { 
						count = 21300,
						offset = 104772,
					},
					position = { 
						count = 21300,
						offset = 62172,
					},
					tangent = { 
						count = 21300,
						offset = 126072,
					},
					uv0 = { 
						count = 21300,
						offset = 83472,
					},
					uv1 = { 
						count = 21300,
						offset = 147372,
					},
				},
			},
		},
		vertexAttr = { 
			normal = { 
				count = 11184,
				numComp = 3,
				offset = 28980,
			},
			position = { 
				count = 17988,
				numComp = 3,
				offset = 0,
			},
			tangent = { 
				count = 22000,
				numComp = 4,
				offset = 40164,
			},
			uv0 = { 
				count = 10992,
				numComp = 2,
				offset = 17988,
			},
			uv1 = { 
				count = 8,
				numComp = 2,
				offset = 62164,
			},
		},
	}
end